HIERARCHY
ROOT Hips
{
	OFFSET 0.000000 0.000000 0.000000
	CHANNELS 6 Xposition Yposition Zposition Xrotation Yrotation Zrotation
	JOINT LeftUpLeg_virtual
	{
		OFFSET 0.000000 0.000000 0.000000
		CHANNELS 3 Xrotation Yrotation Zrotation
		JOINT LeftUpLeg
		{
			OFFSET 11.394100 -6.187798 -0.413800
			CHANNELS 3 Xrotation Yrotation Zrotation
			JOINT LeftLeg
			{
				OFFSET 0.430247 -32.302673 3.732800
				CHANNELS 3 Xrotation Yrotation Zrotation
				JOINT LeftFoot
				{
					OFFSET -0.430247 -48.264931 -6.423300
					CHANNELS 3 Xrotation Yrotation Zrotation
					JOINT LeftToeBase
					{
						OFFSET 4.230900 -16.068199 23.438400
						CHANNELS 3 Xrotation Yrotation Zrotation
						JOINT LeftToe_End
						{
							OFFSET 4.510700 0.695400 19.974600
							CHANNELS 3 Xrotation Yrotation Zrotation
							End Site
							{
								OFFSET 0 0 0
							}
						}
					}
				}
			}
		}
	}
	JOINT RightUpLeg_virtual
	{
		OFFSET 0.000000 0.000000 0.000000
		CHANNELS 3 Xrotation Yrotation Zrotation
		JOINT RightUpLeg
		{
			OFFSET -11.333700 -6.187798 -0.413800
			CHANNELS 3 Xrotation Yrotation Zrotation
			JOINT RightLeg
			{
				OFFSET -0.430392 -32.302628 3.733000
				CHANNELS 3 Xrotation Yrotation Zrotation
				JOINT RightFoot
				{
					OFFSET 0.430392 -48.264973 -6.423500
					CHANNELS 3 Xrotation Yrotation Zrotation
					JOINT RightToeBase
					{
						OFFSET -4.230900 -16.068199 23.438400
						CHANNELS 3 Xrotation Yrotation Zrotation
						JOINT RightToe_End
						{
							OFFSET -4.510700 0.695400 19.974600
							CHANNELS 3 Xrotation Yrotation Zrotation
							End Site
							{
								OFFSET 0 0 0
							}
						}
					}
				}
			}
		}
	}
	JOINT Spine_virtual
	{
		OFFSET 0.000000 0.000000 0.000000
		CHANNELS 3 Xrotation Yrotation Zrotation
		JOINT Spine
		{
			OFFSET -0.002400 12.777504 0.315300
			CHANNELS 3 Xrotation Yrotation Zrotation
			JOINT Spine1
			{
				OFFSET -0.002067 5.816869 0.032633
				CHANNELS 3 Xrotation Yrotation Zrotation
				JOINT Spine1_split
				{
					OFFSET -0.002067 5.816869 0.032633
					CHANNELS 3 Xrotation Yrotation Zrotation
					JOINT Spine2
					{
						OFFSET -0.002067 5.816869 0.032633
						CHANNELS 3 Xrotation Yrotation Zrotation
						JOINT Neck_virtual
						{
							OFFSET 0.000000 0.000000 0.000000
							CHANNELS 3 Xrotation Yrotation Zrotation
							JOINT Neck
							{
								OFFSET -0.003700 21.199493 -0.826900
								CHANNELS 3 Xrotation Yrotation Zrotation
								JOINT Head
								{
									OFFSET 0.000000 20.442200 4.834800
									CHANNELS 3 Xrotation Yrotation Zrotation
									JOINT HeadTop_End
									{
										OFFSET 0.000000 34.668396 4.968400
										CHANNELS 3 Xrotation Yrotation Zrotation
										End Site
										{
											OFFSET 0 0 0
										}
									}
								}
							}
						}
						JOINT LeftShoulder_virtual
						{
							OFFSET 0.000000 0.000000 0.000000
							CHANNELS 3 Xrotation Yrotation Zrotation
							JOINT LeftShoulder
							{
								OFFSET 3.288150 8.794197 -1.372250
								CHANNELS 3 Xrotation Yrotation Zrotation
								JOINT LeftShoulder_split
								{
									OFFSET 3.288150 8.794197 -1.372250
									CHANNELS 3 Xrotation Yrotation Zrotation
									JOINT LeftArm
									{
										OFFSET 11.953299 -2.279007 -0.146200
										CHANNELS 3 Xrotation Yrotation Zrotation
										JOINT LeftForeArm
										{
											OFFSET 18.448900 0.000000 0.000000
											CHANNELS 3 Xrotation Yrotation Zrotation
											JOINT LeftHand
											{
												OFFSET 29.527798 0.000000 0.000000
												CHANNELS 3 Xrotation Yrotation Zrotation
												End Site
												{
													OFFSET 0 0 0
												}
											}
										}
									}
								}
							}
						}
						JOINT RightShoulder_virtual
						{
							OFFSET 0.000000 0.000000 0.000000
							CHANNELS 3 Xrotation Yrotation Zrotation
							JOINT RightShoulder
							{
								OFFSET -3.249400 8.794197 -1.372250
								CHANNELS 3 Xrotation Yrotation Zrotation
								JOINT RightShoulder_split
								{
									OFFSET -3.249400 8.794197 -1.372250
									CHANNELS 3 Xrotation Yrotation Zrotation
									JOINT RightArm
									{
										OFFSET -11.953299 -2.279007 -0.146200
										CHANNELS 3 Xrotation Yrotation Zrotation
										JOINT RightForeArm
										{
											OFFSET -18.448900 0.000000 0.000000
											CHANNELS 3 Xrotation Yrotation Zrotation
											JOINT RightHand
											{
												OFFSET -29.527802 0.000000 0.000000
												CHANNELS 3 Xrotation Yrotation Zrotation
												End Site
												{
													OFFSET 0 0 0
												}
											}
										}
									}
								}
							}
						}
					}
				}
			}
		}
	}
}
MOTION
Frames: 5
Frame Time: 0.03333333
0.209351 84.927483 -1.857319 0.000000 0.000000 0.000000 -5.180027 -63.907239 -3.998304 -39.382461 6.619557 32.101571 45.500292 -8.835422 -7.004076 -4.508070 -3.051213 -6.935805 -0.570078 0.756295 0.369977 0.000000 0.000000 0.000000 -5.967184 -62.708151 -4.056880 -36.399956 -6.081257 -24.270239 49.181675 5.894940 -6.708574 -12.977953 1.755588 22.328901 3.112621 0.040105 -0.000627 0.000000 0.000000 0.000000 -4.788853 -61.483450 -3.220235 10.014786 2.005730 -0.984712 7.579448 0.336038 -5.117131 0.512579 -1.973786 1.123188 0.000000 0.000000 0.000000 7.872796 0.727184 -4.901047 -25.453574 23.040600 11.492102 -3.507160 26.247748 -3.076172 0.000000 0.000000 0.000000 8.911229 0.456422 -4.643636 -5.673303 -9.941571 -1.490891 -2.266581 -1.197371 -2.284519 -18.045112 3.696188 -34.902560 4.917124 -49.408000 2.732973 0.000000 0.000000 0.000000 8.472395 0.404583 -4.943560 -4.059973 11.932126 2.042786 1.938178 1.092487 0.687052 -38.834581 -25.062930 32.343111 -157.150645 65.004304 157.648798 0.000000 0.000000 0.000000 
0.151991 84.889984 -1.876678 0.000000 0.000000 0.000000 -4.839027 -63.769986 -3.238407 -38.843173 6.416247 31.412781 44.735038 -8.526370 -7.061271 -4.266017 -2.829945 -7.124172 -0.240962 0.767487 0.199519 0.000000 0.000000 0.000000 -5.645010 -62.787258 -3.313914 -36.879559 -5.660933 -24.908447 49.561021 6.107990 -6.691389 -13.311359 2.041069 22.456567 3.123780 0.108774 0.002048 0.000000 0.000000 0.000000 -4.049048 -61.200045 -2.305215 9.893197 2.044047 -0.789197 8.069947 0.440004 -4.992602 0.474227 -1.916688 1.200892 0.000000 0.000000 0.000000 8.207283 0.862226 -4.832232 -23.468284 23.129322 11.890165 -2.720064 25.685990 -2.850639 0.000000 0.000000 0.000000 9.304175 0.509141 -4.542660 -5.800147 -10.519617 -2.216172 -2.138774 -0.993925 -2.327481 -16.562744 4.983911 -34.918287 5.272141 -49.740795 2.793809 0.000000 0.000000 0.000000 8.837997 0.522902 -4.753858 -4.130078 12.047083 2.702373 1.554388 0.990114 0.584409 -39.551310 -24.657135 30.973839 -157.360168 64.217985 158.118497 0.000000 0.000000 0.000000 
0.074716 85.054161 -1.857121 0.000000 0.000000 0.000000 -4.210482 -63.650383 -2.208121 -38.300422 6.151685 30.571141 43.674606 -8.276207 -6.974269 -3.803802 -2.723082 -7.548495 0.015858 0.776176 0.072064 0.000000 0.000000 0.000000 -5.123070 -62.808418 -2.366625 -37.147247 -5.409754 -25.456661 49.640555 6.182540 -6.573929 -13.520639 2.143027 22.546613 3.018719 0.149802 -0.022224 0.000000 0.000000 0.000000 -3.223195 -60.858413 -1.302790 9.798420 2.028271 -0.704991 8.486257 0.505670 -4.872918 0.496784 -2.147295 1.255402 0.000000 0.000000 0.000000 8.571889 0.952163 -4.737402 -22.001416 23.250348 11.961558 -2.090829 24.922344 -2.829379 0.000000 0.000000 0.000000 9.659993 0.520925 -4.403347 -5.912581 -10.968927 -2.736097 -2.160956 -0.584284 -2.400859 -15.332264 5.718816 -35.031801 5.752978 -48.866151 2.989104 0.000000 0.000000 0.000000 9.090894 0.590288 -4.560575 -4.191066 11.752025 3.238385 1.035859 0.884723 0.684374 -40.085994 -23.504940 30.298313 -156.877083 64.269300 157.773381 0.000000 0.000000 0.000000 
0.009099 85.294975 -1.805378 0.000000 0.000000 0.000000 -3.567256 -63.485249 -1.215339 -37.912474 5.855312 29.712607 42.699361 -8.095465 -6.765434 -3.314474 -2.727568 -8.118488 0.064193 0.782237 0.050870 0.000000 0.000000 0.000000 -4.566742 -62.769220 -1.439555 -37.198682 -5.252542 -25.807175 49.650489 6.110295 -6.410101 -13.781455 2.026332 22.567276 2.874303 0.155101 -0.051329 0.000000 0.000000 0.000000 -2.588693 -60.498339 -0.478750 9.787493 1.950984 -0.730018 8.821975 0.499475 -4.794830 0.616448 -2.519660 1.213329 0.000000 0.000000 0.000000 8.963144 0.965382 -4.673834 -21.156982 23.402639 11.807914 -1.563764 24.220098 -3.041595 0.000000 0.000000 0.000000 9.988696 0.461454 -4.280762 -5.990392 -11.289365 -3.035383 -2.238773 -0.094138 -2.580999 -14.644655 5.908634 -34.964435 6.053064 -47.110615 3.118122 0.000000 0.000000 0.000000 9.283570 0.566279 -4.422490 -4.231079 11.183654 3.570443 0.607879 0.800256 0.878313 -40.532702 -22.167819 30.320367 -156.578890 64.520781 157.488111 0.000000 0.000000 0.000000 
-0.034667 85.487946 -1.714859 0.000000 0.000000 0.000000 -3.002180 -63.296811 -0.382638 -37.769788 5.594151 28.958616 42.105179 -7.905015 -6.522395 -2.967627 -2.792981 -8.646179 -0.115790 0.792380 0.143224 0.000000 0.000000 0.000000 -4.040268 -62.615233 -0.640171 -37.060678 -5.128133 -25.979304 49.669969 5.941501 -6.256614 -14.141857 1.743653 22.571615 2.702048 0.141770 -0.075962 0.000000 0.000000 0.000000 -2.282635 -60.195905 0.057641 9.879417 1.818193 -0.846342 9.061422 0.415652 -4.788516 0.813249 -2.955269 1.160901 0.000000 0.000000 0.000000 9.353866 0.897849 -4.668913 -20.813314 23.569178 11.559052 -1.098057 23.730703 -3.427354 0.000000 0.000000 0.000000 10.293831 0.344609 -4.230429 -6.028199 -11.420378 -3.179663 -2.289348 0.302148 -2.724603 -14.458129 5.774542 -34.624845 5.961840 -45.060045 3.021661 0.000000 0.000000 0.000000 9.470962 0.454894 -4.394443 -4.258818 10.538155 3.691035 0.540482 0.849821 1.139058 -40.856791 -21.233284 30.972422 -157.020271 64.517994 157.817900 0.000000 0.000000 0.000000 
